<?xml version="1.0" encoding="UTF-8"?>
<svg width="64" height="64" viewBox="0 0 64 64" xmlns="http://www.w3.org/2000/svg" role="img" aria-labelledby="title">
  <title id="title">Stanford Block S favicon (placeholder)</title>
  <rect width="64" height="64" rx="8" ry="8" fill="white"/>
  <path d="M18 10h28v10h-18c-2.761 0-5 2.239-5 5v0c0 2.761 2.239 5 5 5h8c7.732 0 14 6.268 14 14v0c0 7.732-6.268 14-14 14H18V48h18c2.761 0 5-2.239 5-5v0c0-2.761-2.239-5-5-5h-8C20.268 38 14 31.732 14 24v0c0-7.732 6.268-14 14-14z" fill="#8C1515"/>
</svg>
